<?xml version="1.0" encoding="UTF-8" standalone="no"?>
<!DOCTYPE svg PUBLIC "-//W3C//DTD SVG 1.1//EN" "http://www.w3.org/Graphics/SVG/1.1/DTD/svg11.dtd">
<svg width="100%" height="100%" viewBox="0 0 226 408" version="1.1" xmlns="http://www.w3.org/2000/svg" xmlns:xlink="http://www.w3.org/1999/xlink" xml:space="preserve" xmlns:serif="http://www.serif.com/" style="fill-rule:evenodd;clip-rule:evenodd;">
    <g transform="matrix(1,0,0,1,-552.643,-51.4435)">
        <g transform="matrix(1,0,0,1,0,6.61409)">
            <path id="duke" d="M601.503,88.347C609.927,105.987 604.239,229.179 594.375,272.379C584.511,315.651 574.647,370.659 572.343,416.955C571.335,436.683 574.359,444.459 587.247,444.459C609.999,444.459 638.871,396.507 675.087,397.587C711.375,398.667 722.895,452.595 739.887,452.235C756.879,451.875 770.559,445.971 770.703,393.483C771.207,236.81 639.879,109.802 601.503,88.347Z" style="fill-rule:nonzero;"/>
            <path id="duke-right-hand" d="M715.407,213.555C723.399,227.019 743.775,216.651 744.639,201.459C745.503,186.267 743.271,167.115 733.407,166.395C723.543,165.675 716.487,155.811 706.623,155.091C696.759,154.371 686.175,164.235 681.567,151.131C676.959,138.027 693.951,132.483 706.623,130.395C695.319,119.091 688.695,106.563 683.727,93.531C678.759,80.499 675.087,68.547 688.983,63.435C702.879,58.323 701.727,84.603 717.639,96.627C712.959,78.915 711.231,71.571 711.591,61.275C711.951,50.979 711.231,43.131 725.847,45.147C740.463,47.163 734.127,77.547 745.503,89.931C748.959,78.195 751.047,63.291 759.399,57.171C767.751,51.051 786.759,50.907 774.663,76.035C762.567,101.163 778.191,114.771 774.519,134.571C770.847,154.371 759.471,150.771 754.575,163.515C749.679,176.259 757.455,205.275 748.239,218.307C739.023,231.339 737.367,251.355 743.343,267.339C724.983,250.203 715.407,213.555 715.407,213.555Z" style="fill-rule:nonzero;"/>
            <path id="duke-left-hand" d="M600.999,230.475C593.583,281.307 567.807,287.355 566.511,308.451C565.215,329.547 573.351,331.563 572.847,351.075C572.343,370.587 554.991,378.507 552.903,389.091C550.815,399.675 561.831,403.059 568.239,403.059C574.647,403.059 581.055,374.979 583.647,357.123C586.239,339.267 575.151,328.755 575.151,316.515C575.151,304.275 591.207,281.883 588.255,301.539C601.575,280.515 607.912,253.73 600.999,230.475Z" style="fill-rule:nonzero;"/>
            <path id="duke-shirt" d="M610.936,249.842C605.32,277.346 570.256,430.922 588.112,432.866C605.968,434.81 631.384,385.346 673,385.706C714.688,386.066 731.104,441.146 741.256,440.786C751.408,440.426 758.104,444.386 759.184,382.322C760.264,320.258 722.392,240.986 700,206.066C669.615,208.01 636.927,232.347 610.936,249.842Z" style="fill:rgb(226,0,32);fill-rule:nonzero;"/>
            <g transform="matrix(1,0,0,1,552.644,44.8288)">
                <path id="duke-smile" d="M147.082,171.533C145.42,154.338 132.675,143.545 116.187,140.906C100.263,138.357 82.927,145.904 71.779,157.052C59.241,169.59 58.74,187.03 67.519,201.885C76.18,216.542 95.366,221.386 111.082,217.72C132.588,212.705 148.48,193.896 147.082,171.533" style="fill-rule:nonzero;"/>
                <path id="duke-nose" d="M139.162,177.941C137.669,193.568 125.215,206.123 110.218,209.765C94.348,213.619 76.825,207.508 71.122,191.189C68.21,182.857 68.752,174.31 73.759,166.991C77.982,160.82 84.792,155.991 91.538,152.925C105.462,146.599 125.37,145.896 135.069,160.002C138.744,165.348 139.387,171.641 139.162,177.941" style="fill:white;fill-rule:nonzero;stroke:black;stroke-width:1px;"/>
            </g>
        </g>
    </g>
</svg>
