<?xml version="1.0" encoding="UTF-8" standalone="no"?>
<!DOCTYPE svg PUBLIC "-//W3C//DTD SVG 1.1//EN" "http://www.w3.org/Graphics/SVG/1.1/DTD/svg11.dtd">
<svg width="100%" height="100%" viewBox="0 0 226 408" version="1.1" xmlns="http://www.w3.org/2000/svg" xmlns:xlink="http://www.w3.org/1999/xlink" xml:space="preserve" xmlns:serif="http://www.serif.com/" style="fill-rule:evenodd;clip-rule:evenodd;">
    <g transform="matrix(1,0,0,1,-552.643,-51.4435)">
        <g transform="matrix(1,0,0,1,0,6.61409)">
            <path id="duke" d="M601.503,88.347C609.927,105.987 604.239,229.179 594.375,272.379C584.511,315.651 574.647,370.659 572.343,416.955C571.335,436.683 574.359,444.459 587.247,444.459C609.999,444.459 638.871,396.507 675.087,397.587C711.375,398.667 722.895,452.595 739.887,452.235C756.879,451.875 770.559,445.971 770.703,393.483C771.207,236.81 639.879,109.802 601.503,88.347Z" style="fill-rule:nonzero;"/>
            <path id="duke-right-hand" d="M715.407,213.555C723.399,227.019 743.775,216.651 744.639,201.459C745.503,186.267 743.271,167.115 733.407,166.395C723.543,165.675 716.487,155.811 706.623,155.091C696.759,154.371 686.175,164.235 681.567,151.131C676.959,138.027 693.951,132.483 706.623,130.395C695.319,119.091 688.695,106.563 683.727,93.531C678.759,80.499 675.087,68.547 688.983,63.435C702.879,58.323 701.727,84.603 717.639,96.627C712.959,78.915 711.231,71.571 711.591,61.275C711.951,50.979 711.231,43.131 725.847,45.147C740.463,47.163 734.127,77.547 745.503,89.931C748.959,78.195 751.047,63.291 759.399,57.171C767.751,51.051 786.759,50.907 774.663,76.035C762.567,101.163 778.191,114.771 774.519,134.571C770.847,154.371 759.471,150.771 754.575,163.515C749.679,176.259 757.455,205.275 748.239,218.307C739.023,231.339 737.367,251.355 743.343,267.339C724.983,250.203 715.407,213.555 715.407,213.555Z" style="fill-rule:nonzero;"/>
            <path id="duke-left-hand" d="M600.999,230.475C593.583,281.307 567.807,287.355 566.511,308.451C565.215,329.547 573.351,331.563 572.847,351.075C572.343,370.587 554.991,378.507 552.903,389.091C550.815,399.675 561.831,403.059 568.239,403.059C574.647,403.059 581.055,374.979 583.647,357.123C586.239,339.267 575.151,328.755 575.151,316.515C575.151,304.275 591.207,281.883 588.255,301.539C601.575,280.515 607.912,253.73 600.999,230.475Z" style="fill-rule:nonzero;"/>
            <path id="duke-shirt" d="M610.936,249.842C605.32,277.346 570.256,430.922 588.112,432.866C605.968,434.81 631.384,385.346 673,385.706C714.688,386.066 731.104,441.146 741.256,440.786C751.408,440.426 758.104,444.386 759.184,382.322C760.264,320.258 722.392,240.986 700,206.066C669.615,208.01 636.927,232.347 610.936,249.842Z" style="fill:rgb(226,0,32);fill-rule:nonzero;"/>
            <g transform="matrix(1,0,0,1,552.644,44.8288)">
                <path id="duke-smile" d="M147.082,171.533C145.42,154.338 132.675,143.545 116.187,140.906C100.263,138.357 82.927,145.904 71.779,157.052C59.241,169.59 58.74,187.03 67.519,201.885C76.18,216.542 95.366,221.386 111.082,217.72C132.588,212.705 148.48,193.896 147.082,171.533" style="fill-rule:nonzero;"/>
                <path id="duke-nose" d="M139.162,177.941C137.669,193.568 125.215,206.123 110.218,209.765C94.348,213.619 76.825,207.508 71.122,191.189C68.21,182.857 68.752,174.31 73.759,166.991C77.982,160.82 84.792,155.991 91.538,152.925C105.462,146.599 125.37,145.896 135.069,160.002C138.744,165.348 139.387,171.641 139.162,177.941" style="fill:white;fill-rule:nonzero;stroke:black;stroke-width:1px;"/>
            </g>
        </g>
        <g id="duke-shield-logo" transform="matrix(0.735436,-0.0982567,0.0982567,0.735436,1175.61,377.584)">
            <g id="duke-tummy-shield">
                <path id="duke-shield-logo1" serif:id="duke-shield-logo" d="M-603.024,-85.245C-603.089,-85.165 -603.183,-85.118 -603.294,-85.118C-603.404,-85.118 -603.501,-85.165 -603.563,-85.26L-616.494,-101.234C-616.572,-101.329 -616.605,-101.456 -616.559,-101.583C-616.51,-101.725 -616.4,-101.805 -616.274,-101.82L-595.973,-105.038C-595.879,-105.054 -595.752,-105.005 -595.671,-104.942C-595.593,-104.895 -595.561,-104.768 -595.561,-104.673C-595.483,-97.431 -598.128,-90.521 -603.025,-85.244L-603.024,-85.245ZM-609.411,-80.062C-615.607,-76.386 -622.897,-75.245 -629.965,-76.798C-630.075,-76.83 -630.173,-76.893 -630.202,-77.004C-630.267,-77.083 -630.267,-77.194 -630.202,-77.305L-622.865,-96.48C-622.816,-96.591 -622.706,-96.687 -622.579,-96.702C-622.436,-96.735 -622.293,-96.67 -622.23,-96.576L-609.283,-80.601C-609.234,-80.522 -609.205,-80.411 -609.234,-80.316C-609.234,-80.189 -609.296,-80.11 -609.393,-80.063L-609.411,-80.062ZM-637.35,-79.73C-637.46,-79.697 -637.554,-79.697 -637.652,-79.746C-640.789,-81.489 -643.499,-83.819 -645.75,-86.592C-648.016,-89.381 -649.695,-92.519 -650.773,-95.942C-650.773,-96.037 -650.773,-96.132 -650.725,-96.227C-650.663,-96.322 -650.566,-96.37 -650.471,-96.386L-630.171,-99.618C-630.044,-99.618 -629.902,-99.586 -629.822,-99.492C-629.744,-99.381 -629.728,-99.238 -629.757,-99.127L-637.142,-79.936C-637.175,-79.841 -637.253,-79.778 -637.35,-79.73ZM-651.913,-103.786C-651.991,-103.865 -652.04,-103.96 -652.04,-104.055C-652.102,-111.313 -649.457,-118.207 -644.592,-123.484C-644.498,-123.579 -644.433,-123.611 -644.306,-123.611C-644.212,-123.611 -644.115,-123.579 -644.021,-123.484L-631.089,-107.51C-631.011,-107.415 -630.995,-107.272 -631.027,-107.146C-631.089,-107.035 -631.186,-106.939 -631.329,-106.908L-651.614,-103.707C-651.724,-103.674 -651.835,-103.723 -651.916,-103.786L-651.913,-103.786ZM-638.19,-128.682C-632.009,-132.343 -624.688,-133.516 -617.62,-131.931C-617.526,-131.915 -617.428,-131.852 -617.383,-131.757C-617.334,-131.661 -617.334,-131.535 -617.383,-131.455L-624.752,-112.264C-624.801,-112.137 -624.911,-112.042 -625.021,-112.027C-625.164,-112.01 -625.291,-112.059 -625.37,-112.169L-638.301,-128.127C-638.379,-128.223 -638.395,-128.334 -638.379,-128.429C-638.379,-128.524 -638.301,-128.619 -638.204,-128.682L-638.19,-128.682ZM-610.235,-129.015C-610.141,-129.031 -610.043,-129.031 -609.933,-128.999C-606.811,-127.24 -604.086,-124.942 -601.835,-122.153C-599.585,-119.364 -597.889,-116.226 -596.843,-112.819C-596.794,-112.692 -596.843,-112.597 -596.892,-112.501C-596.924,-112.422 -597.018,-112.359 -597.113,-112.343L-617.429,-109.11C-617.555,-109.094 -617.698,-109.158 -617.762,-109.253C-617.84,-109.348 -617.872,-109.49 -617.84,-109.601L-610.455,-128.808C-610.422,-128.903 -610.361,-128.983 -610.234,-129.014L-610.235,-129.015ZM-671.01,-168.221C-671.104,-168.221 -671.214,-168.285 -671.263,-168.364L-684.21,-184.322C-684.272,-184.433 -684.304,-184.56 -684.259,-184.687C-684.21,-184.798 -684.1,-184.909 -683.989,-184.924L-663.673,-188.125C-663.579,-188.142 -663.482,-188.125 -663.404,-188.046C-663.31,-187.983 -663.261,-187.888 -663.261,-187.777C-663.183,-180.535 -665.844,-173.625 -670.709,-168.332C-670.787,-168.269 -670.901,-168.221 -671.011,-168.221L-671.01,-168.221ZM-677.111,-163.166C-683.307,-159.489 -690.597,-158.317 -697.681,-159.901C-697.775,-159.934 -697.872,-159.997 -697.901,-160.076C-697.966,-160.187 -697.966,-160.298 -697.95,-160.393L-690.565,-179.584C-690.517,-179.711 -690.422,-179.79 -690.28,-179.806C-690.169,-179.838 -690.026,-179.773 -689.947,-179.679L-677.015,-163.705C-676.954,-163.626 -676.921,-163.515 -676.938,-163.404C-676.938,-163.309 -677.032,-163.214 -677.113,-163.167L-677.111,-163.166ZM-705.066,-162.817C-705.16,-162.785 -705.257,-162.785 -705.351,-162.85C-708.489,-164.593 -711.215,-166.907 -713.465,-169.696C-715.715,-172.453 -717.395,-175.607 -718.473,-179.046C-718.505,-179.141 -718.473,-179.252 -718.44,-179.331C-718.375,-179.41 -718.281,-179.474 -718.171,-179.489L-697.87,-182.722C-697.728,-182.739 -697.617,-182.69 -697.537,-182.58C-697.459,-182.484 -697.427,-182.342 -697.476,-182.231L-704.845,-163.04C-704.877,-162.929 -704.971,-162.85 -705.065,-162.818L-705.066,-162.817ZM-719.613,-186.874C-719.708,-186.969 -719.756,-187.064 -719.756,-187.159C-719.821,-194.417 -717.173,-201.326 -712.292,-206.62C-712.214,-206.683 -712.117,-206.731 -712.007,-206.715C-711.912,-206.715 -711.802,-206.667 -711.737,-206.588L-698.806,-190.614C-698.728,-190.503 -698.696,-190.36 -698.741,-190.249C-698.79,-190.138 -698.9,-190.027 -699.01,-190.027L-719.327,-186.81C-719.437,-186.778 -719.548,-186.826 -719.612,-186.873L-719.613,-186.874ZM-705.89,-211.786C-699.693,-215.446 -692.403,-216.603 -685.336,-215.034C-685.225,-214.987 -685.128,-214.923 -685.099,-214.86C-685.037,-214.749 -685.037,-214.638 -685.066,-214.543L-692.419,-195.368C-692.481,-195.241 -692.578,-195.162 -692.721,-195.114C-692.832,-195.114 -692.974,-195.162 -693.054,-195.257L-705.985,-211.231C-706.05,-211.326 -706.096,-211.421 -706.079,-211.532C-706.047,-211.643 -705.985,-211.722 -705.888,-211.786L-705.89,-211.786ZM-677.935,-212.103C-677.841,-212.135 -677.743,-212.135 -677.649,-212.07C-674.543,-210.327 -671.801,-208.013 -669.535,-205.24C-667.301,-202.451 -665.621,-199.329 -664.559,-195.906C-664.511,-195.795 -664.527,-195.7 -664.592,-195.589C-664.654,-195.526 -664.735,-195.462 -664.829,-195.431L-685.129,-192.229C-685.256,-192.197 -685.382,-192.246 -685.478,-192.356C-685.54,-192.451 -685.572,-192.578 -685.527,-192.705L-678.158,-211.896C-678.125,-212.007 -678.063,-212.054 -677.937,-212.102L-677.935,-212.103ZM-595.893,-126.971C-607.509,-141.297 -627.889,-144.546 -643.34,-134.514C-643.499,-134.403 -643.689,-134.451 -643.815,-134.577L-652.326,-145.163C-652.374,-145.227 -652.404,-145.306 -652.404,-145.401C-652.404,-145.496 -652.355,-145.607 -652.261,-145.67C-652.261,-145.67 -634.67,-159.965 -634.131,-160.393C-634.512,-160.884 -638.379,-165.67 -638.775,-166.161C-639.33,-165.701 -656.888,-151.439 -656.888,-151.439C-656.966,-151.376 -657.063,-151.36 -657.158,-151.36C-657.235,-151.376 -657.333,-151.423 -657.395,-151.502L-665.778,-161.961C-665.888,-162.104 -665.872,-162.294 -665.778,-162.437C-653.068,-175.448 -652.149,-195.938 -663.622,-210.074C-669.644,-217.522 -678.218,-222.181 -687.758,-223.164C-697.314,-224.178 -706.664,-221.405 -714.128,-215.383C-729.5,-202.911 -731.893,-180.249 -719.421,-164.846C-707.837,-150.535 -687.425,-147.303 -671.99,-157.334C-671.831,-157.429 -671.61,-157.397 -671.499,-157.239L-663.163,-146.843C-663.101,-146.764 -663.085,-146.685 -663.085,-146.605C-663.085,-146.51 -663.147,-146.415 -663.211,-146.336C-663.211,-146.336 -680.675,-132.169 -681.23,-131.709C-680.834,-131.218 -676.967,-126.464 -676.571,-125.972C-676.032,-126.432 -658.6,-140.568 -658.6,-140.568C-658.522,-140.631 -658.425,-140.663 -658.331,-140.647C-658.236,-140.631 -658.139,-140.584 -658.094,-140.504L-649.536,-129.887C-649.426,-129.76 -649.426,-129.538 -649.536,-129.411C-662.23,-116.385 -663.165,-95.91 -651.723,-81.774C-645.669,-74.31 -637.096,-69.651 -627.54,-68.652C-618.016,-67.654 -608.65,-70.427 -601.202,-76.465C-585.814,-88.921 -583.437,-111.583 -595.893,-126.971" style="fill:white;fill-rule:nonzero;"/>
            </g>
        </g>
    </g>
</svg>
