<?xml version="1.0" encoding="UTF-8" standalone="no"?>
<!-- Generator: Adobe Illustrator 13.0.0, SVG Export Plug-In . SVG Version: 6.00 Build 14948)  -->

<svg
   xmlns:dc="http://purl.org/dc/elements/1.1/"
   xmlns:cc="http://creativecommons.org/ns#"
   xmlns:rdf="http://www.w3.org/1999/02/22-rdf-syntax-ns#"
   xmlns:svg="http://www.w3.org/2000/svg"
   xmlns="http://www.w3.org/2000/svg"
   xmlns:sodipodi="http://sodipodi.sourceforge.net/DTD/sodipodi-0.dtd"
   xmlns:inkscape="http://www.inkscape.org/namespaces/inkscape"
   version="1.1"
   id="Layer_1"
   x="0px"
   y="0px"
   width="225.93742"
   height="407.40723"
   viewBox="0 0 225.93742 407.40721"
   enable-background="new 0 0 225.938 407.407"
   xml:space="preserve"
   sodipodi:docname="duke.svg"
   inkscape:version="0.91 r13725"
   inkscape:export-filename="C:\Users\timzo\Desktop\Rastergrafik.png"
   inkscape:export-xdpi="96"
   inkscape:export-ydpi="96"><metadata
     id="metadata3722"><rdf:RDF><cc:Work
         rdf:about=""><dc:format>image/svg+xml</dc:format><dc:type
           rdf:resource="http://purl.org/dc/dcmitype/StillImage" /><dc:title></dc:title></cc:Work></rdf:RDF></metadata><defs
     id="defs3720" /><sodipodi:namedview
     pagecolor="#ffffff"
     bordercolor="#666666"
     borderopacity="1"
     objecttolerance="10"
     gridtolerance="10"
     guidetolerance="10"
     inkscape:pageopacity="1"
     inkscape:pageshadow="2"
     inkscape:window-width="1440"
     inkscape:window-height="856"
     id="namedview3718"
     showgrid="false"
     inkscape:zoom="1.3607319"
     inkscape:cx="138.78144"
     inkscape:cy="201.34092"
     inkscape:window-x="0"
     inkscape:window-y="0"
     inkscape:window-maximized="1"
     inkscape:current-layer="Layer_1"
     inkscape:pagecheckerboard="false"
     borderlayer="false"
     fit-margin-top="0"
     fit-margin-left="0"
     fit-margin-right="0"
     fit-margin-bottom="0" /><g
     id="g3932"
     transform="translate(-552.64347,-51.443473)"
     inkscape:export-xdpi="96"
     inkscape:export-ydpi="96"><g
       transform="translate(0,6.6140876)"
       id="g3823"><path
         d="m 601.50277,88.346816 c 8.424,17.640004 2.736,140.832004 -7.128,184.032004 -9.864,43.272 -19.728,98.28 -22.032,144.576 -1.008,19.728 2.016,27.504 14.904,27.504 22.752,0 51.624,-47.952 87.84,-46.872 36.288,1.08 47.808,55.008 64.8,54.648 16.992,-0.36 30.672,-6.264 30.816,-58.752 0.504,-156.673 -130.824,-283.681 -169.2,-305.136004 z"
         id="path3680"
         inkscape:connector-curvature="0"
         style="clip-rule:evenodd;fill-rule:evenodd" /><path
         d="m 715.40677,213.55482 c 7.992,13.464 28.368,3.096 29.232,-12.096 0.864,-15.192 -1.368,-34.344 -11.232,-35.064 -9.864,-0.72 -16.92,-10.584 -26.784,-11.304 -9.864,-0.72 -20.448,9.144 -25.056,-3.96 -4.608,-13.104 12.384,-18.648 25.056,-20.736 -11.304,-11.304 -17.928,-23.832 -22.896,-36.864004 -4.968,-13.032 -8.64,-24.984 5.256,-30.096 13.896,-5.112 12.744,21.168 28.656,33.192 -4.68,-17.712 -6.408,-25.056 -6.048,-35.352 0.36,-10.296 -0.36,-18.144 14.256,-16.128 14.616,2.016 8.28,32.4 19.656,44.784 3.456,-11.736 5.544,-26.64 13.896,-32.76 8.352,-6.12 27.36,-6.264 15.264,18.864 -12.096,25.128004 3.528,38.736004 -0.144,58.536004 -3.672,19.8 -15.048,16.2 -19.944,28.944 -4.896,12.744 2.88,41.76 -6.336,54.792 -9.216,13.032 -10.872,33.048 -4.896,49.032 -18.36,-17.136 -27.936,-53.784 -27.936,-53.784 z"
         id="path3682"
         inkscape:connector-curvature="0"
         style="clip-rule:evenodd;fill-rule:evenodd" /><path
         d="m 600.99877,230.47482 c -7.416,50.832 -33.192,56.88 -34.488,77.976 -1.296,21.096 6.84,23.112 6.336,42.624 -0.504,19.512 -17.856,27.432 -19.944,38.016 -2.088,10.584 8.928,13.968 15.336,13.968 6.408,0 12.816,-28.08 15.408,-45.936 2.592,-17.856 -8.496,-28.368 -8.496,-40.608 0,-12.24 16.056,-34.632 13.104,-14.976 13.32,-21.024 19.657,-47.809 12.744,-71.064 z"
         id="path3684"
         inkscape:connector-curvature="0"
         style="clip-rule:evenodd;fill-rule:evenodd" /><path
         d="m 610.93577,249.84182 c -5.616,27.504 -40.68,181.08 -22.824,183.024 17.856,1.944 43.272,-47.52 84.888,-47.16 41.688,0.36 58.104,55.44 68.256,55.08 10.152,-0.36 16.848,3.6 17.928,-58.464 1.08,-62.064 -36.792,-141.336 -59.184,-176.256 -30.385,1.944 -63.073,26.281 -89.064,43.776 z"
         id="path3686"
         inkscape:connector-curvature="0"
         style="clip-rule:evenodd;fill:#ffffff;fill-rule:evenodd" /><g
         id="g3715"
         transform="translate(552.64377,44.828816)"><path
           d="m 139.162,172.181 c -1.95,-18.251 -19.12,-25.421 -35.661,-23.168 -13.889,1.893 -32.403,13.613 -34.107,28.64 -1.921,16.937 11.402,32.522 28.361,33.203 15.03,0.604 31.176,-6.668 37.93,-20.79 2.73,-5.704 3.797,-11.578 3.477,-17.885"
           id="path3688"
           inkscape:connector-curvature="0"
           style="fill:none" /><path
           d="m 147.082,171.533 c -1.662,-17.195 -14.407,-27.988 -30.895,-30.627 -15.924,-2.549 -33.26,4.998 -44.408,16.146 -12.538,12.538 -13.039,29.978 -4.26,44.833 8.661,14.657 27.847,19.501 43.563,15.835 21.506,-5.015 37.398,-23.824 36,-46.187"
           id="path3690"
           inkscape:connector-curvature="0" /><radialGradient
           id="SVGID_1_"
           cx="86.629898"
           cy="167.06931"
           r="54.7155"
           gradientUnits="userSpaceOnUse"><stop
             offset="0"
             style="stop-color:#FFFFFF"
             id="stop3692" /><stop
             offset="0.0604"
             style="stop-color:#FBC8B4"
             id="stop3694" /><stop
             offset="0.0712"
             style="stop-color:#FBC3B0"
             id="stop3696" /><stop
             offset="0.1829"
             style="stop-color:#F7978B"
             id="stop3698" /><stop
             offset="0.2995"
             style="stop-color:#F4716B"
             id="stop3700" /><stop
             offset="0.4199"
             style="stop-color:#F15251"
             id="stop3702" /><stop
             offset="0.5453"
             style="stop-color:#EF3A3D"
             id="stop3704" /><stop
             offset="0.6778"
             style="stop-color:#EE292F"
             id="stop3706" /><stop
             offset="0.822"
             style="stop-color:#ED1F27"
             id="stop3708" /><stop
             offset="1"
             style="stop-color:#ED1C24"
             id="stop3710" /></radialGradient><path
           d="m 139.162,177.941 c -1.493,15.627 -13.947,28.182 -28.944,31.824 -15.87,3.854 -33.393,-2.257 -39.096,-18.576 -2.912,-8.332 -2.37,-16.879 2.637,-24.198 4.223,-6.171 11.033,-11 17.779,-14.066 13.924,-6.326 33.832,-7.029 43.531,7.077 3.675,5.346 4.318,11.639 4.093,17.939"
           id="path3713"
           style="fill:url(#SVGID_1_);stroke:#000000"
           inkscape:connector-curvature="0" /></g></g><g
       transform="matrix(0.48668201,-0.06502235,0.06502235,0.48668201,999.42567,356.4178)"
       id="g3907"><path
         inkscape:connector-curvature="0"
         d="m -572.32794,-114.0709 c 0,45.323502 -38.20812,82.07349 -83.53142,82.07349 -45.32364,0 -83.53142,-36.749988 -83.53142,-82.07349 0,-0.1269 -3.23288,-120.94703 -3.23288,-120.94703 27.89119,-5.00781 57.44669,-7.73351 86.77988,-7.73351 29.5396,0 58.41354,2.75744 86.47934,7.8286 0,0 -2.9635,120.72517 -2.9635,120.85194"
         id="path2704"
         style="fill:#e20020;fill-opacity:1;fill-rule:nonzero;stroke:none;stroke-width:3.24553919" /><path
         inkscape:connector-curvature="0"
         d="m -603.02426,-85.24454 c -0.0649,0.07919 -0.15903,0.126901 -0.26938,0.126901 -0.11034,0 -0.20771,-0.04739 -0.26938,-0.142479 l -12.9312,-15.974122 c -0.0779,-0.0951 -0.11035,-0.222 -0.0649,-0.34867 0.0487,-0.14248 0.15903,-0.22199 0.28561,-0.23757 l 20.30052,-3.21705 c 0.0941,-0.0162 0.2207,0.0325 0.30184,0.0951 0.0779,0.0474 0.11035,0.17428 0.11035,0.26938 0.0779,7.242192 -2.56755,14.151685 -7.46409,19.428835 z m -6.38657,5.182088 c -6.19638,3.67658 -13.48619,4.817581 -20.554,3.264558 -0.11035,-0.03245 -0.20771,-0.09509 -0.23692,-0.206091 -0.0649,-0.07919 -0.0649,-0.190189 0,-0.301186 l 7.33719,-19.175296 c 0.0487,-0.110997 0.15903,-0.206092 0.28561,-0.221995 0.1428,-0.03245 0.2856,0.03246 0.34857,0.126901 l 12.94743,15.974155 c 0.0487,0.07919 0.0779,0.190189 0.0487,0.285283 0,0.1269 -0.0617,0.206092 -0.15903,0.253476 z m -27.9389,0.332798 c -0.11035,0.03245 -0.20447,0.03245 -0.30183,-0.01623 -3.13779,-1.743212 -5.84749,-4.072795 -8.09795,-6.846043 -2.26603,-2.789152 -3.94593,-5.926939 -5.02377,-9.349977 0,-0.09509 0,-0.190189 0.0487,-0.285283 0.0617,-0.09509 0.15904,-0.142479 0.25316,-0.158382 l 20.30052,-3.232882 c 0.12658,0 0.26938,0.03246 0.34857,0.126901 0.0779,0.110997 0.0941,0.253476 0.0649,0.364474 l -7.3849,19.191166 c -0.0325,0.09509 -0.11035,0.158382 -0.20771,0.206091 z m -14.56371,-24.056296 c -0.0779,-0.0792 -0.12657,-0.17428 -0.12657,-0.26938 -0.0617,-7.25806 2.58312,-14.15169 7.44819,-19.42884 0.0941,-0.0951 0.15903,-0.1269 0.2856,-0.1269 0.0941,0 0.19149,0.0325 0.28561,0.1269 l 12.93153,15.97413 c 0.0779,0.0951 0.0941,0.23757 0.0617,0.36447 -0.0617,0.111 -0.15903,0.20609 -0.30183,0.23757 l -20.28462,3.20121 c -0.11035,0.0325 -0.2207,-0.0162 -0.30184,-0.0792 z m 13.72377,-24.89621 c 6.18048,-3.66074 13.50209,-4.83345 20.5699,-3.24868 0.0941,0.0162 0.19149,0.0792 0.23692,0.17428 0.0487,0.0951 0.0487,0.222 0,0.30119 l -7.36899,19.19113 c -0.0487,0.1269 -0.15903,0.222 -0.26938,0.23758 -0.14281,0.0162 -0.26938,-0.0325 -0.34857,-0.14248 l -12.93153,-15.95829 c -0.0779,-0.0951 -0.0941,-0.20609 -0.0779,-0.30118 0,-0.0951 0.0779,-0.19019 0.17526,-0.25348 z m 27.9548,-0.33276 c 0.0941,-0.0162 0.19149,-0.0162 0.30183,0.0162 3.12189,1.75908 5.84749,4.05692 8.09795,6.84607 2.25013,2.78912 3.94593,5.92691 4.99196,9.33408 0.0487,0.1269 0,0.22199 -0.0487,0.31709 -0.0325,0.0792 -0.12658,0.14247 -0.2207,0.15838 l -20.3161,3.23288 c -0.12657,0.0162 -0.26938,-0.0477 -0.33299,-0.14248 -0.0779,-0.0951 -0.11035,-0.23757 -0.0779,-0.34867 l 7.3849,-19.20697 c 0.0325,-0.0951 0.0941,-0.17429 0.22069,-0.20609 z m -60.77467,-39.20641 c -0.0941,0 -0.20447,-0.0633 -0.25315,-0.14248 l -12.94743,-15.95831 c -0.0617,-0.111 -0.0941,-0.23758 -0.0487,-0.36448 0.0487,-0.111 0.15904,-0.22199 0.26938,-0.23757 l 20.31611,-3.20117 c 0.0941,-0.0162 0.19148,0 0.26938,0.0792 0.0941,0.0633 0.1428,0.15838 0.1428,0.26938 0.0779,7.24226 -2.58313,14.15168 -7.44819,19.4447 -0.0779,0.0633 -0.19149,0.111 -0.30183,0.111 z m -6.10129,5.05532 c -6.19638,3.67661 -13.48619,4.84929 -20.5699,3.26452 -0.0941,-0.0325 -0.19149,-0.0951 -0.2207,-0.17428 -0.0649,-0.111 -0.0649,-0.222 -0.0487,-0.31709 l 7.3849,-19.19113 c 0.0487,-0.1269 0.1428,-0.2061 0.2856,-0.222 0.11035,-0.0324 0.25316,0.0325 0.33267,0.12658 l 12.93153,15.97415 c 0.0617,0.0792 0.0941,0.19019 0.0779,0.30119 0,0.0951 -0.0941,0.19019 -0.17526,0.23757 z m -27.9548,0.34867 c -0.0941,0.0325 -0.19149,0.0325 -0.28561,-0.0325 -3.13779,-1.74314 -5.86339,-4.05692 -8.11385,-6.84604 -2.25013,-2.75741 -3.93002,-5.91107 -5.00754,-9.34991 -0.0325,-0.0951 0,-0.20609 0.0324,-0.28529 0.0649,-0.0792 0.15903,-0.14248 0.26938,-0.15838 l 20.30053,-3.23288 c 0.1428,-0.0162 0.25315,0.0325 0.33299,0.1428 0.0779,0.0951 0.11035,0.23758 0.0617,0.34864 l -7.36899,19.19117 c -0.0325,0.11099 -0.12658,0.19018 -0.2207,0.22199 z m -14.54781,-24.0563 c -0.0941,-0.0951 -0.1428,-0.19019 -0.1428,-0.28528 -0.0649,-7.25813 2.58312,-14.16756 7.46409,-19.46058 0.0779,-0.0633 0.17526,-0.111 0.28561,-0.0951 0.0941,0 0.20446,0.0474 0.26938,0.1269 l 12.9312,15.97415 c 0.0779,0.111 0.11035,0.25348 0.0649,0.36451 -0.0487,0.111 -0.15903,0.22199 -0.26938,0.22199 l -20.31643,3.21702 c -0.11035,0.0325 -0.22069,-0.0162 -0.28561,-0.0633 z m 13.72376,-24.91208 c 6.19639,-3.66074 13.48619,-4.81761 20.554,-3.24868 0.11035,0.0474 0.20772,0.11099 0.23693,0.17428 0.0617,0.111 0.0617,0.222 0.0325,0.31709 l -7.35309,19.1753 c -0.0617,0.1269 -0.15903,0.20609 -0.30184,0.25347 -0.11034,0 -0.25315,-0.0474 -0.33266,-0.14248 l -12.93153,-15.97415 c -0.0649,-0.0951 -0.11035,-0.19019 -0.0941,-0.30119 0.0325,-0.11099 0.0941,-0.19018 0.19149,-0.25347 z m 27.95481,-0.31708 c 0.0941,-0.0325 0.19148,-0.0325 0.2856,0.0325 3.10599,1.74325 5.84782,4.05693 8.11385,6.83021 2.23456,2.78915 3.91412,5.9111 4.97606,9.33407 0.0487,0.111 0.0325,0.20609 -0.0325,0.31709 -0.0617,0.0633 -0.14281,0.1269 -0.23693,0.15838 l -20.30052,3.20121 c -0.12658,0.0324 -0.25315,-0.0162 -0.34857,-0.1269 -0.0617,-0.0951 -0.0941,-0.22167 -0.0487,-0.34861 l 7.36899,-19.19116 c 0.0325,-0.111 0.0941,-0.15839 0.2207,-0.2061 z m 82.04171,85.13198 c -11.61611,-14.326 -31.99582,-17.57469 -47.44686,-7.54331 -0.15903,0.111 -0.34857,0.0633 -0.47547,-0.0633 l -8.51013,-10.58601 c -0.0487,-0.0633 -0.0779,-0.14248 -0.0779,-0.23757 0,-0.0951 0.0487,-0.20609 0.1428,-0.26938 0,0 17.5905,-14.29433 18.12926,-14.72222 -0.38038,-0.49125 -4.24711,-5.27715 -4.64339,-5.76843 -0.55467,0.4596 -18.11336,14.72219 -18.11336,14.72219 -0.0779,0.0633 -0.17526,0.0792 -0.26938,0.0792 -0.0779,-0.0162 -0.17526,-0.0633 -0.23692,-0.14248 l -8.38323,-10.4593 c -0.11035,-0.14248 -0.0941,-0.33276 0,-0.47544 12.70953,-13.01065 13.62867,-33.5013 2.15536,-47.63712 -6.0221,-7.44828 -14.59551,-12.10738 -24.13578,-13.0899 -9.55584,-1.01424 -18.90591,1.75905 -26.37,7.78101 -15.37185,12.47186 -17.76479,35.13362 -5.29283,50.53727 11.5843,14.31013 31.99583,17.54298 47.43096,7.51164 0.15903,-0.0951 0.38038,-0.0633 0.49138,0.0951 l 8.33584,10.39585 c 0.0617,0.0792 0.0779,0.15839 0.0779,0.23758 0,0.0951 -0.0617,0.19019 -0.12657,0.26938 0,0 -17.4636,14.16749 -18.01826,14.62706 0.39595,0.49131 4.26269,5.24547 4.65897,5.73678 0.53876,-0.45963 17.97087,-14.59545 17.97087,-14.59545 0.0779,-0.0633 0.17526,-0.0951 0.26938,-0.0792 0.0941,0.0162 0.19149,0.0633 0.23693,0.14248 l 8.55751,10.61768 c 0.11035,0.12691 0.11035,0.34867 0,0.47544 -12.69363,13.02656 -13.62867,33.501304 -2.18684,47.637186 6.05358,7.464091 14.62699,12.123225 24.18283,13.121585 9.52436,0.998425 18.89034,-1.774888 26.33853,-7.812727 15.38775,-12.456023 17.76478,-35.117744 5.30873,-50.505554"
         id="path2706"
         style="fill:#ffffff;fill-opacity:1;fill-rule:nonzero;stroke:none;stroke-width:3.24553919" /></g></g></svg>