<?xml version="1.0" encoding="UTF-8"?>
<svg id="Ebene_2" data-name="Ebene 2" xmlns="http://www.w3.org/2000/svg" viewBox="0 0 875.62 227.48">
  <defs>
    <style>
      .cls-1 {
        fill: #1e34a8;
      }
    </style>
  </defs>
  <g id="logo">
    <g>
      <polygon class="cls-1" points="431.85 90.66 431.85 225.5 405.78 225.5 405.78 99.35 431.85 90.66"/>
      <path class="cls-1" d="M496.53,227.48c-26.71,0-43.31-17.7-43.31-46.19v-54.84h26.07v52.5c0,16,8.08,24.45,23.36,24.45,16.34,0,25.71-9.63,25.71-26.43v-50.51h26.07v99.05h-26.07v-9.02l-1.47,1.17c-7.98,6.34-18.77,9.84-30.37,9.84Z"/>
      <path class="cls-1" d="M724.66,225.5v-50.16c0-21.85-12.41-26.43-22.83-26.43-16.23,0-25.17,9.52-25.17,26.79v49.79h-26.07v-50.16c0-21.85-12.41-26.43-22.83-26.43-16.23,0-25.17,9.52-25.17,26.79v49.79h-26.07v-99.05h26.07v8.87l1.48-1.19c7.88-6.38,17.51-9.48,29.46-9.48,13.96,0,25.63,5.44,32.84,15.31l.63.87.75-.77c9.96-10.23,22.52-15.41,37.32-15.41,29.01,0,45.65,17.49,45.65,47.99v52.86h-26.07Z"/>
      <path class="cls-1" d="M205.06,181.41l69.13-46.92-14.06-39.81-75.45,58.58c-2.66-2.25-5.48-4.32-8.44-6.17l43.96-121.87L182.7,0l-39.51,136.3c-1.74-.13-3.48-.21-5.25-.21s-3.51.09-5.25.21l-31.1-107.31-35.84,24.1,33.9,93.99c-2.96,1.86-5.79,3.92-8.44,6.17L15.95,94.8,1.7,134.49l69.13,46.92c-1.93,4.77-3.37,9.8-4.25,15.01L1.7,187.4l-1.7,38.1h92.63c-.67-5.11-1.52-11.02-1.52-17.03,0-25.82,21.01-46.83,46.83-46.83s46.83,21.01,46.83,46.83c0,6.01-.85,11.92-1.52,17.03h92.63l-1.7-38.1-64.89,9.01c-.88-5.21-2.31-10.23-4.25-15.01Z"/>
      <circle class="cls-1" cx="369.53" cy="99.35" r="15.24"/>
      <rect class="cls-1" x="356.5" y="126.45" width="26.07" height="99.05"/>
      <path class="cls-1" d="M845.51,196.45c-5.71,5.3-13.76,8.21-22.92,8.21-15,0-26.82-7.23-30.86-18.87l-.42-1.2h84.31v-9.78c0-29.54-21.81-50.17-53.03-50.17-32.93,0-56.83,21.63-56.83,51.43s23.37,51.41,56.83,51.41c24.92,0,42.19-12.72,49.38-26.37.78-1.48,1.36-3.05,1.8-4.66h-28.26ZM792.57,166.53c.54-3.48,1.98-6.79,4.31-9.43,5.58-6.35,14.36-10,24.61-10s18.65,4.24,23.57,9.43c2.64,2.78,4.18,6.42,4.69,10.22h-57.21l.03-.22Z"/>
    </g>
  </g>
</svg>