<svg width="143" height="38" viewBox="0 0 143 38" fill="none" xmlns="http://www.w3.org/2000/svg">
<path d="M41.516 24V22.524H37.916V15.624H36.104V24H41.516ZM49.3353 24L47.0673 15.624H44.5233L42.2553 24H44.0793L44.5953 21.984H46.8873L47.4153 24H49.3353ZM46.6113 20.532H44.8833L45.6993 17.364H45.7953L46.6113 20.532ZM54.5626 24H56.1226V15.624H54.1426L53.1106 18.444H53.0146L51.9826 15.624H49.8586V24H51.4186V20.268L51.3226 17.928H51.4306L52.9906 22.236L54.5506 17.928H54.6586L54.5626 20.268V24ZM57.5099 24H60.7259C62.3099 24 63.2579 23.1 63.2579 21.696C63.2579 20.568 62.6579 19.944 61.6259 19.692V19.62C62.5019 19.368 62.9939 18.804 62.9939 17.856C62.9939 16.488 62.0819 15.624 60.4499 15.624H57.5099V24ZM59.2619 22.74V20.376H60.1739C61.0259 20.376 61.4219 20.628 61.4219 21.384V21.732C61.4219 22.5 61.0259 22.74 60.1739 22.74H59.2619ZM59.2619 19.176V16.884H59.9459C60.7859 16.884 61.1579 17.112 61.1579 17.844V18.204C61.1579 18.936 60.7859 19.176 59.9459 19.176H59.2619ZM64.5493 24H67.2493C69.4933 24 70.5733 22.5 70.5733 19.812C70.5733 17.124 69.4933 15.624 67.2493 15.624H64.5493V24ZM66.3253 22.584V17.04H67.1293C68.1973 17.04 68.6773 17.748 68.6773 19.044V20.568C68.6773 21.876 68.1973 22.584 67.1293 22.584H66.3253ZM78.1166 24L75.8486 15.624H73.3046L71.0366 24H72.8606L73.3766 21.984H75.6686L76.1966 24H78.1166ZM75.3926 20.532H73.6646L74.4806 17.364H74.5766L75.3926 20.532ZM84.4758 24.144C86.5758 24.144 87.6798 22.992 87.6798 21.42C87.6798 20.1 86.8998 19.308 85.5558 19.068L84.6798 18.912C83.8638 18.768 83.5278 18.516 83.5278 17.94C83.5278 17.28 83.9358 16.944 84.7398 16.944C85.4958 16.944 86.1198 17.244 86.5638 17.736L87.5838 16.596C86.9958 15.912 86.0118 15.48 84.7278 15.48C82.8318 15.48 81.7158 16.416 81.7158 18.024C81.7158 19.248 82.3518 20.172 83.8518 20.424L84.7278 20.568C85.5438 20.7 85.8558 20.976 85.8558 21.564C85.8558 22.284 85.3878 22.68 84.5358 22.68C83.7918 22.68 83.0358 22.368 82.4238 21.696L81.3798 22.848C82.0158 23.64 83.0838 24.144 84.4758 24.144ZM91.9951 24.144C93.7231 24.144 94.6231 23.196 94.9591 21.732L93.2791 21.324C93.0991 22.116 92.7991 22.692 91.9591 22.692C90.9871 22.692 90.6151 21.876 90.6151 20.544V19.08C90.6151 17.748 90.9871 16.932 91.9591 16.932C92.7991 16.932 93.0991 17.508 93.2791 18.3L94.9591 17.892C94.6231 16.428 93.7231 15.48 91.9951 15.48C89.7511 15.48 88.6951 17.064 88.6951 19.812C88.6951 22.56 89.7511 24.144 91.9951 24.144ZM100.054 24H101.866V15.624H100.054V19.02H97.9424V15.624H96.1304V24H97.9424V20.496H100.054V24ZM107.766 24H109.326V15.624H107.346L106.314 18.444H106.218L105.186 15.624H103.062V24H104.622V20.268L104.526 17.928H104.634L106.194 22.236L107.754 17.928H107.862L107.766 20.268V24ZM116.089 24V22.668H114.289V16.956H116.089V15.624H110.689V16.956H112.489V22.668H110.689V24H116.089ZM123.296 24V22.524H119.744V20.496H123.176V19.02H119.744V17.1H123.296V15.624H117.944V24H123.296ZM124.948 24H127.648C129.892 24 130.972 22.5 130.972 19.812C130.972 17.124 129.892 15.624 127.648 15.624H124.948V24ZM126.724 22.584V17.04H127.528C128.596 17.04 129.076 17.748 129.076 19.044V20.568C129.076 21.876 128.596 22.584 127.528 22.584H126.724ZM137.687 24V22.524H134.135V20.496H137.567V19.02H134.135V17.1H137.687V15.624H132.335V24H137.687Z" fill="#00354E"/>
<g clip-path="url(#clip0_310_455)">
<path d="M13.7229 0.981987L14.412 7.08222H17.5881L18.2772 0.981987H13.7229Z" fill="#ED694B"/>
<path d="M3.32593 0L8.1499 7.08222H11.3259L8.06001 0H3.32593Z" fill="#ED694B"/>
<path d="M23.8501 0.0297546L20.5842 7.11198H23.7603L28.5842 0.0297546H23.8501Z" fill="#ED694B"/>
<path d="M16 32.2866L12.764 26.603L16 20.9193L19.236 26.6327L16 32.2866ZM11.3258 12.7063L14.382 18.0626L11.1461 23.7463L4.85393 12.7063H11.3258ZM27.1461 12.7063L20.8539 23.776L14.5918 12.7063H27.1461ZM0 9.90916L16 38L32 9.90916H0Z" fill="#00354E"/>
</g>
<defs>
<clipPath id="clip0_310_455">
<rect width="32" height="38" fill="white"/>
</clipPath>
</defs>
</svg>
